<?xml version="1.0" standalone="no"?>
<!DOCTYPE svg PUBLIC "-//W3C//DTD SVG 20010904//EN"
 "http://www.w3.org/TR/2001/REC-SVG-20010904/DTD/svg10.dtd">
<svg version="1.0" xmlns="http://www.w3.org/2000/svg"
 width="301.000000pt" height="301.000000pt" viewBox="0 0 301.000000 301.000000"
 preserveAspectRatio="xMidYMid meet">
<metadata>
Created by potrace 1.11, written by Peter Selinger 2001-2013
</metadata>
<g transform="translate(0.000000,301.000000) scale(0.100000,-0.100000)"
fill="#000000" stroke="none">
<path d="M1215 2659 c-73 -21 -209 -27 -291 -10 -83 16 -140 9 -173 -24 -30
-28 -36 -29 -113 -9 -98 24 -170 -45 -228 -217 -12 -35 -37 -91 -56 -125 -40
-72 -38 -87 30 -187 50 -74 56 -107 36 -195 -13 -53 -1 -78 44 -97 28 -12 41
-12 87 1 30 8 93 17 141 19 89 5 123 -2 258 -54 42 -17 73 -21 132 -19 42 1
79 0 81 -2 3 -3 8 -30 11 -61 4 -31 8 -65 10 -76 9 -42 19 -203 19 -278 0 -96
-6 -138 -33 -230 -20 -70 -35 -145 -44 -220 -3 -22 -7 -56 -10 -75 -15 -107
-18 -157 -21 -390 -2 -140 -7 -290 -10 -332 l-6 -78 30 0 30 0 1 283 c2 308 4
355 24 502 2 11 6 45 11 75 4 30 21 120 38 200 27 127 30 165 31 310 0 111 -6
204 -18 283 l-18 117 50 45 c28 25 62 65 75 88 25 42 44 56 99 77 26 9 28 8
25 -19 -5 -39 11 -179 24 -219 15 -47 54 -89 95 -102 l34 -12 -45 -44 c-65
-64 -74 -88 -73 -180 1 -56 -3 -88 -15 -111 -31 -59 -18 -104 48 -166 43 -40
95 -65 149 -72 89 -10 87 -5 56 -157 -46 -224 -76 -325 -170 -588 -53 -147
-100 -289 -100 -301 0 -5 10 -9 23 -9 20 0 27 17 76 168 30 92 57 172 61 177
39 59 134 391 165 580 11 64 17 85 24 85 14 0 92 -61 98 -77 20 -52 136 -45
310 20 65 25 132 47 148 51 42 9 157 10 235 2 82 -8 98 0 76 42 -12 24 -15 53
-11 142 4 97 8 115 28 143 39 52 124 221 121 239 -1 9 -9 45 -17 80 -9 35 -19
86 -23 113 -8 63 -39 121 -73 135 -15 6 -40 35 -61 71 -53 92 -58 95 -146 85
-32 -3 -50 2 -89 26 -47 29 -91 34 -135 15 -11 -5 -22 5 -38 33 -25 44 -90 97
-131 107 -35 8 -51 22 -51 44 0 32 -57 59 -124 59 -50 0 -64 -4 -96 -30 -45
-35 -118 -70 -135 -64 -17 7 -37 71 -40 129 -1 28 -8 61 -14 74 -13 23 -64 49
-111 57 -47 9 -129 55 -161 92 -18 20 -39 42 -48 48 -24 17 -73 23 -106 13z"/>
</g>
</svg>
